<?xml version="1.0" encoding="utf-8"?>
<!-- Generator: Adobe Illustrator 25.3.1, SVG Export Plug-In . SVG Version: 6.00 Build 0)  -->
<svg version="1.1" xmlns="http://www.w3.org/2000/svg" xmlns:xlink="http://www.w3.org/1999/xlink" x="0px" y="0px"
	 viewBox="0 0 1440 1024" style="enable-background:new 0 0 1440 1024;" xml:space="preserve">
<style type="text/css">
	.st0{fill:#FFFFFF;}
	.st1{fill:url(#SVGID_1_);}
	.st2{opacity:0.54;}
	.st3{fill:url(#SVGID_2_);}
	.st4{fill:url(#SVGID_3_);}
	.st5{fill:url(#SVGID_4_);}
	.st6{fill:url(#SVGID_5_);}
	.st7{fill:url(#SVGID_6_);}
	.st8{fill:url(#SVGID_7_);}
	.st9{fill:url(#SVGID_8_);}
	.st10{fill:url(#SVGID_9_);}
	.st11{fill:url(#SVGID_10_);}
</style>
<symbol  id="Star" viewBox="-1.69 -1.69 3.38 3.38">
	<g>
		<circle class="st0" cx="0" cy="0" r="1.69"/>
	</g>
</symbol>
<g id="Backgroud">
	<g>
		<linearGradient id="SVGID_1_" gradientUnits="userSpaceOnUse" x1="715.0793" y1="-204.7621" x2="725.0493" y2="1247.4934">
			<stop  offset="0" style="stop-color:#01565B"/>
			<stop  offset="0.1351" style="stop-color:#0F6663"/>
			<stop  offset="0.3979" style="stop-color:#349076"/>
			<stop  offset="0.6322" style="stop-color:#5ABA8A"/>
			<stop  offset="0.9903" style="stop-color:#E1F296"/>
		</linearGradient>
		<rect class="st1" width="1440" height="1024"/>
	</g>
</g>
<g id="Stars">
	<g>
		
			<use xlink:href="#Star"  width="3.38" height="3.38" x="-1.69" y="-1.69" transform="matrix(1 0 0 -1 106.3739 89.4857)" style="overflow:visible;"/>
		
			<use xlink:href="#Star"  width="3.38" height="3.38" x="-1.69" y="-1.69" transform="matrix(1 0 0 -1 114.1773 85.4463)" style="overflow:visible;"/>
		
			<use xlink:href="#Star"  width="3.38" height="3.38" x="-1.69" y="-1.69" transform="matrix(1 0 0 -1 321.3876 92.8926)" style="overflow:visible;"/>
		
			<use xlink:href="#Star"  width="3.38" height="3.38" x="-1.69" y="-1.69" transform="matrix(1 0 0 -1 460.8464 114.1227)" style="overflow:visible;"/>
		
			<use xlink:href="#Star"  width="3.38" height="3.38" x="-1.69" y="-1.69" transform="matrix(1 0 0 -1 579.949 161.4876)" style="overflow:visible;"/>
		
			<use xlink:href="#Star"  width="3.38" height="3.38" x="-1.69" y="-1.69" transform="matrix(1 0 0 -1 659.6467 162.1906)" style="overflow:visible;"/>
		
			<use xlink:href="#Star"  width="3.38" height="3.38" x="-1.69" y="-1.69" transform="matrix(1 0 0 -1 658.0053 156.6008)" style="overflow:visible;"/>
		
			<use xlink:href="#Star"  width="3.38" height="3.38" x="-1.69" y="-1.69" transform="matrix(1 0 0 -1 767.2117 155.5847)" style="overflow:visible;"/>
		
			<use xlink:href="#Star"  width="3.38" height="3.38" x="-1.69" y="-1.69" transform="matrix(1 0 0 -1 1040.618 217.7791)" style="overflow:visible;"/>
		
			<use xlink:href="#Star"  width="3.38" height="3.38" x="-1.69" y="-1.69" transform="matrix(1 0 0 -1 1112.4896 260.3614)" style="overflow:visible;"/>
		
			<use xlink:href="#Star"  width="3.38" height="3.38" x="-1.69" y="-1.69" transform="matrix(1 0 0 -1 985.9542 403.5574)" style="overflow:visible;"/>
		
			<use xlink:href="#Star"  width="3.38" height="3.38" x="-1.69" y="-1.69" transform="matrix(1 0 0 -1 404.3948 534.6437)" style="overflow:visible;"/>
		
			<use xlink:href="#Star"  width="3.38" height="3.38" x="-1.69" y="-1.69" transform="matrix(1 0 0 -1 221.8121 500.8773)" style="overflow:visible;"/>
		
			<use xlink:href="#Star"  width="3.38" height="3.38" x="-1.69" y="-1.69" transform="matrix(1 0 0 -1 597.9561 420.3125)" style="overflow:visible;"/>
		
			<use xlink:href="#Star"  width="3.38" height="3.38" x="-1.69" y="-1.69" transform="matrix(1 0 0 -1 782.4354 247.6103)" style="overflow:visible;"/>
		
			<use xlink:href="#Star"  width="3.38" height="3.38" x="-1.69" y="-1.69" transform="matrix(1 0 0 -1 404.0818 367.302)" style="overflow:visible;"/>
		
			<use xlink:href="#Star"  width="3.38" height="3.38" x="-1.69" y="-1.69" transform="matrix(1 0 0 -1 223.7122 557.8149)" style="overflow:visible;"/>
		
			<use xlink:href="#Star"  width="3.38" height="3.38" x="-1.69" y="-1.69" transform="matrix(1 0 0 -1 350.0911 291.3871)" style="overflow:visible;"/>
		
			<use xlink:href="#Star"  width="3.38" height="3.38" x="-1.69" y="-1.69" transform="matrix(1 0 0 -1 273.9595 244.3846)" style="overflow:visible;"/>
		
			<use xlink:href="#Star"  width="3.38" height="3.38" x="-1.69" y="-1.69" transform="matrix(1 0 0 -1 75.8537 296.4023)" style="overflow:visible;"/>
		
			<use xlink:href="#Star"  width="3.38" height="3.38" x="-1.69" y="-1.69" transform="matrix(1 0 0 -1 316.9002 177.9701)" style="overflow:visible;"/>
		
			<use xlink:href="#Star"  width="3.38" height="3.38" x="-1.69" y="-1.69" transform="matrix(1 0 0 -1 743.8142 108.3241)" style="overflow:visible;"/>
		
			<use xlink:href="#Star"  width="3.38" height="3.38" x="-1.69" y="-1.69" transform="matrix(1 0 0 -1 832.6111 82.9055)" style="overflow:visible;"/>
		
			<use xlink:href="#Star"  width="3.38" height="3.38" x="-1.69" y="-1.69" transform="matrix(1 0 0 -1 885.1124 54.0181)" style="overflow:visible;"/>
		
			<use xlink:href="#Star"  width="3.38" height="3.38" x="-1.69" y="-1.69" transform="matrix(1 0 0 -1 950.649 35.3894)" style="overflow:visible;"/>
		
			<use xlink:href="#Star"  width="3.38" height="3.38" x="-1.69" y="-1.69" transform="matrix(1 0 0 -1 938.1722 34.9257)" style="overflow:visible;"/>
		
			<use xlink:href="#Star"  width="3.38" height="3.38" x="-1.69" y="-1.69" transform="matrix(1 0 0 -1 1182.6636 219.1866)" style="overflow:visible;"/>
		
			<use xlink:href="#Star"  width="3.38" height="3.38" x="-1.69" y="-1.69" transform="matrix(1 0 0 -1 875.1407 442.188)" style="overflow:visible;"/>
		
			<use xlink:href="#Star"  width="3.38" height="3.38" x="-1.69" y="-1.69" transform="matrix(1 0 0 -1 733.8334 640.8974)" style="overflow:visible;"/>
		
			<use xlink:href="#Star"  width="3.38" height="3.38" x="-1.69" y="-1.69" transform="matrix(1 0 0 -1 706.6708 697.5535)" style="overflow:visible;"/>
		
			<use xlink:href="#Star"  width="3.38" height="3.38" x="-1.69" y="-1.69" transform="matrix(1 0 0 -1 1138.0332 374.0848)" style="overflow:visible;"/>
		
			<use xlink:href="#Star"  width="3.38" height="3.38" x="-1.69" y="-1.69" transform="matrix(1 0 0 -1 1327.0476 461.3947)" style="overflow:visible;"/>
		
			<use xlink:href="#Star"  width="3.38" height="3.38" x="-1.69" y="-1.69" transform="matrix(1 0 0 -1 1368.4573 493.5977)" style="overflow:visible;"/>
		
			<use xlink:href="#Star"  width="3.38" height="3.38" x="-1.69" y="-1.69" transform="matrix(1 0 0 -1 1342.2904 493.2079)" style="overflow:visible;"/>
		
			<use xlink:href="#Star"  width="3.38" height="3.38" x="-1.69" y="-1.69" transform="matrix(1 0 0 -1 993.0227 540.8123)" style="overflow:visible;"/>
		
			<use xlink:href="#Star"  width="3.38" height="3.38" x="-1.69" y="-1.69" transform="matrix(1 0 0 -1 942.8056 605.9706)" style="overflow:visible;"/>
		
			<use xlink:href="#Star"  width="3.38" height="3.38" x="-1.69" y="-1.69" transform="matrix(1 0 0 -1 1125.4041 597.7987)" style="overflow:visible;"/>
		
			<use xlink:href="#Star"  width="3.38" height="3.38" x="-1.69" y="-1.69" transform="matrix(1 0 0 -1 1313.3607 647.9179)" style="overflow:visible;"/>
		
			<use xlink:href="#Star"  width="3.38" height="3.38" x="-1.69" y="-1.69" transform="matrix(1 0 0 -1 1216.3636 807.3677)" style="overflow:visible;"/>
		
			<use xlink:href="#Star"  width="3.38" height="3.38" x="-1.69" y="-1.69" transform="matrix(1 0 0 -1 1369.8599 689.118)" style="overflow:visible;"/>
		
			<use xlink:href="#Star"  width="3.38" height="3.38" x="-1.69" y="-1.69" transform="matrix(1 0 0 -1 1456.5029 583.6327)" style="overflow:visible;"/>
		
			<use xlink:href="#Star"  width="3.38" height="3.38" x="-1.69" y="-1.69" transform="matrix(1 0 0 -1 1179.3113 469.8434)" style="overflow:visible;"/>
		
			<use xlink:href="#Star"  width="3.38" height="3.38" x="-1.69" y="-1.69" transform="matrix(1 0 0 -1 935.9877 340.7378)" style="overflow:visible;"/>
		
			<use xlink:href="#Star"  width="3.38" height="3.38" x="-1.69" y="-1.69" transform="matrix(1 0 0 -1 833.7067 322.0152)" style="overflow:visible;"/>
		
			<use xlink:href="#Star"  width="3.38" height="3.38" x="-1.69" y="-1.69" transform="matrix(1 0 0 -1 847.4421 317.2953)" style="overflow:visible;"/>
		
			<use xlink:href="#Star"  width="3.38" height="3.38" x="-1.69" y="-1.69" transform="matrix(1 0 0 -1 670.2695 344.9946)" style="overflow:visible;"/>
		
			<use xlink:href="#Star"  width="3.38" height="3.38" x="-1.69" y="-1.69" transform="matrix(1 0 0 -1 539.7974 300.9245)" style="overflow:visible;"/>
		
			<use xlink:href="#Star"  width="3.38" height="3.38" x="-1.69" y="-1.69" transform="matrix(1 0 0 -1 532.097 274.4449)" style="overflow:visible;"/>
		
			<use xlink:href="#Star"  width="3.38" height="3.38" x="-1.69" y="-1.69" transform="matrix(1 0 0 -1 468.6567 271.0196)" style="overflow:visible;"/>
		
			<use xlink:href="#Star"  width="3.38" height="3.38" x="-1.69" y="-1.69" transform="matrix(1 0 0 -1 432.1271 282.4767)" style="overflow:visible;"/>
		
			<use xlink:href="#Star"  width="3.38" height="3.38" x="-1.69" y="-1.69" transform="matrix(1 0 0 -1 433.8214 287.9857)" style="overflow:visible;"/>
		
			<use xlink:href="#Star"  width="3.38" height="3.38" x="-1.69" y="-1.69" transform="matrix(1 0 0 -1 324.1301 279.3381)" style="overflow:visible;"/>
		
			<use xlink:href="#Star"  width="3.38" height="3.38" x="-1.69" y="-1.69" transform="matrix(1 0 0 -1 99.6281 355.9075)" style="overflow:visible;"/>
		
			<use xlink:href="#Star"  width="3.38" height="3.38" x="-1.69" y="-1.69" transform="matrix(1 0 0 -1 28.0131 455.5692)" style="overflow:visible;"/>
		
			<use xlink:href="#Star"  width="3.38" height="3.38" x="-1.69" y="-1.69" transform="matrix(1 0 0 -1 -14.9506 517.0936)" style="overflow:visible;"/>
		
			<use xlink:href="#Star"  width="3.38" height="3.38" x="-1.69" y="-1.69" transform="matrix(1 0 0 -1 -23.4257 522.7533)" style="overflow:visible;"/>
		
			<use xlink:href="#Star"  width="3.38" height="3.38" x="-1.69" y="-1.69" transform="matrix(1 0 0 -1 97.5521 336.894)" style="overflow:visible;"/>
		
			<use xlink:href="#Star"  width="3.38" height="3.38" x="-1.69" y="-1.69" transform="matrix(1 0 0 -1 134.8184 104.798)" style="overflow:visible;"/>
		
			<use xlink:href="#Star"  width="3.38" height="3.38" x="-1.69" y="-1.69" transform="matrix(1 0 0 -1 117.9563 105.9074)" style="overflow:visible;"/>
		
			<use xlink:href="#Star"  width="3.38" height="3.38" x="-1.69" y="-1.69" transform="matrix(1 0 0 -1 127.1221 119.3401)" style="overflow:visible;"/>
		
			<use xlink:href="#Star"  width="3.38" height="3.38" x="-1.69" y="-1.69" transform="matrix(1 0 0 -1 308.646 105.8064)" style="overflow:visible;"/>
		
			<use xlink:href="#Star"  width="3.38" height="3.38" x="-1.69" y="-1.69" transform="matrix(1 0 0 -1 346.2052 24.1673)" style="overflow:visible;"/>
		
			<use xlink:href="#Star"  width="3.38" height="3.38" x="-1.69" y="-1.69" transform="matrix(1 0 0 -1 300.352 -22.2929)" style="overflow:visible;"/>
		
			<use xlink:href="#Star"  width="3.38" height="3.38" x="-1.69" y="-1.69" transform="matrix(1 0 0 -1 272.2178 -12.0713)" style="overflow:visible;"/>
		
			<use xlink:href="#Star"  width="3.38" height="3.38" x="-1.69" y="-1.69" transform="matrix(1 0 0 -1 356.6679 73.7249)" style="overflow:visible;"/>
		
			<use xlink:href="#Star"  width="3.38" height="3.38" x="-1.69" y="-1.69" transform="matrix(1 0 0 -1 867.3639 6.5392)" style="overflow:visible;"/>
		
			<use xlink:href="#Star"  width="3.38" height="3.38" x="-1.69" y="-1.69" transform="matrix(1 0 0 -1 962.278 9.5654)" style="overflow:visible;"/>
		
			<use xlink:href="#Star"  width="3.38" height="3.38" x="-1.69" y="-1.69" transform="matrix(1 0 0 -1 957.1759 6.6023)" style="overflow:visible;"/>
		
			<use xlink:href="#Star"  width="3.38" height="3.38" x="-1.69" y="-1.69" transform="matrix(1 0 0 -1 1100.8707 -29.5426)" style="overflow:visible;"/>
		
			<use xlink:href="#Star"  width="3.38" height="3.38" x="-1.69" y="-1.69" transform="matrix(1 0 0 -1 1346.095 17.9565)" style="overflow:visible;"/>
		
			<use xlink:href="#Star"  width="3.38" height="3.38" x="-1.69" y="-1.69" transform="matrix(1 0 0 -1 1379.6759 37.8236)" style="overflow:visible;"/>
		
			<use xlink:href="#Star"  width="3.38" height="3.38" x="-1.69" y="-1.69" transform="matrix(1 0 0 -1 1103.2166 176.8108)" style="overflow:visible;"/>
		
			<use xlink:href="#Star"  width="3.38" height="3.38" x="-1.69" y="-1.69" transform="matrix(1 0 0 -1 978.0978 290.2783)" style="overflow:visible;"/>
		
			<use xlink:href="#Star"  width="3.38" height="3.38" x="-1.69" y="-1.69" transform="matrix(1 0 0 -1 980.7909 301.0055)" style="overflow:visible;"/>
		
			<use xlink:href="#Star"  width="3.38" height="3.38" x="-1.69" y="-1.69" transform="matrix(1 0 0 -1 1128.5538 63.7199)" style="overflow:visible;"/>
		
			<use xlink:href="#Star"  width="3.38" height="3.38" x="-1.69" y="-1.69" transform="matrix(1 0 0 -1 1048.365 106.3732)" style="overflow:visible;"/>
		
			<use xlink:href="#Star"  width="3.38" height="3.38" x="-1.69" y="-1.69" transform="matrix(1 0 0 -1 947.4836 188.7385)" style="overflow:visible;"/>
		
			<use xlink:href="#Star"  width="3.38" height="3.38" x="-1.69" y="-1.69" transform="matrix(1 0 0 -1 1060.7794 123.0331)" style="overflow:visible;"/>
		
			<use xlink:href="#Star"  width="3.38" height="3.38" x="-1.69" y="-1.69" transform="matrix(1 0 0 -1 1128.4839 54.3244)" style="overflow:visible;"/>
		
			<use xlink:href="#Star"  width="3.38" height="3.38" x="-1.69" y="-1.69" transform="matrix(1 0 0 -1 743.6617 210.3943)" style="overflow:visible;"/>
		
			<use xlink:href="#Star"  width="3.38" height="3.38" x="-1.69" y="-1.69" transform="matrix(1 0 0 -1 612.1727 181.7039)" style="overflow:visible;"/>
		
			<use xlink:href="#Star"  width="3.38" height="3.38" x="-1.69" y="-1.69" transform="matrix(1 0 0 -1 663.9514 65.6105)" style="overflow:visible;"/>
		
			<use xlink:href="#Star"  width="3.38" height="3.38" x="-1.69" y="-1.69" transform="matrix(1 0 0 -1 693.683 43.8643)" style="overflow:visible;"/>
		
			<use xlink:href="#Star"  width="3.38" height="3.38" x="-1.69" y="-1.69" transform="matrix(1 0 0 -1 503.344 136.0963)" style="overflow:visible;"/>
		
			<use xlink:href="#Star"  width="3.38" height="3.38" x="-1.69" y="-1.69" transform="matrix(1 0 0 -1 569.0364 -18.2209)" style="overflow:visible;"/>
		
			<use xlink:href="#Star"  width="3.38" height="3.38" x="-1.69" y="-1.69" transform="matrix(1 0 0 -1 380.3862 157.9176)" style="overflow:visible;"/>
		
			<use xlink:href="#Star"  width="3.38" height="3.38" x="-1.69" y="-1.69" transform="matrix(1 0 0 -1 409.3185 159.0021)" style="overflow:visible;"/>
		
			<use xlink:href="#Star"  width="3.38" height="3.38" x="-1.69" y="-1.69" transform="matrix(1 0 0 -1 408.49 164.8557)" style="overflow:visible;"/>
		
			<use xlink:href="#Star"  width="3.38" height="3.38" x="-1.69" y="-1.69" transform="matrix(1 0 0 -1 274.591 752.8518)" style="overflow:visible;"/>
		
			<use xlink:href="#Star"  width="3.38" height="3.38" x="-1.69" y="-1.69" transform="matrix(1 0 0 -1 309.8424 905.2907)" style="overflow:visible;"/>
		
			<use xlink:href="#Star"  width="3.38" height="3.38" x="-1.69" y="-1.69" transform="matrix(1 0 0 -1 711.3561 453.9986)" style="overflow:visible;"/>
		
			<use xlink:href="#Star"  width="3.38" height="3.38" x="-1.69" y="-1.69" transform="matrix(1 0 0 -1 415.9232 791.8181)" style="overflow:visible;"/>
		
			<use xlink:href="#Star"  width="3.38" height="3.38" x="-1.69" y="-1.69" transform="matrix(1 0 0 -1 495.2698 741.6097)" style="overflow:visible;"/>
		
			<use xlink:href="#Star"  width="3.38" height="3.38" x="-1.69" y="-1.69" transform="matrix(1 0 0 -1 882.86 664.2581)" style="overflow:visible;"/>
		
			<use xlink:href="#Star"  width="3.38" height="3.38" x="-1.69" y="-1.69" transform="matrix(1 0 0 -1 976.4758 771.8975)" style="overflow:visible;"/>
		
			<use xlink:href="#Star"  width="3.38" height="3.38" x="-1.69" y="-1.69" transform="matrix(1 0 0 -1 967.6133 774.0197)" style="overflow:visible;"/>
		
			<use xlink:href="#Star"  width="3.38" height="3.38" x="-1.69" y="-1.69" transform="matrix(1 0 0 -1 960.0499 780.0316)" style="overflow:visible;"/>
		
			<use xlink:href="#Star"  width="3.38" height="3.38" x="-1.69" y="-1.69" transform="matrix(1 0 0 -1 1169.2916 793.7916)" style="overflow:visible;"/>
		
			<use xlink:href="#Star"  width="3.38" height="3.38" x="-1.69" y="-1.69" transform="matrix(1 0 0 -1 1458.8047 692.5352)" style="overflow:visible;"/>
		
			<use xlink:href="#Star"  width="3.38" height="3.38" x="-1.69" y="-1.69" transform="matrix(1 0 0 -1 1173.2236 658.7916)" style="overflow:visible;"/>
		
			<use xlink:href="#Star"  width="3.38" height="3.38" x="-1.69" y="-1.69" transform="matrix(1 0 0 -1 1162.5347 656.1812)" style="overflow:visible;"/>
		
			<use xlink:href="#Star"  width="3.38" height="3.38" x="-1.69" y="-1.69" transform="matrix(1 0 0 -1 1335.9447 427.1872)" style="overflow:visible;"/>
		
			<use xlink:href="#Star"  width="3.38" height="3.38" x="-1.69" y="-1.69" transform="matrix(1 0 0 -1 1310.9762 431.4716)" style="overflow:visible;"/>
		
			<use xlink:href="#Star"  width="3.38" height="3.38" x="-1.69" y="-1.69" transform="matrix(1 0 0 -1 1378.5992 355.808)" style="overflow:visible;"/>
		
			<use xlink:href="#Star"  width="3.38" height="3.38" x="-1.69" y="-1.69" transform="matrix(1 0 0 -1 1390.3096 314.5514)" style="overflow:visible;"/>
		
			<use xlink:href="#Star"  width="3.38" height="3.38" x="-1.69" y="-1.69" transform="matrix(1 0 0 -1 1189.3726 438.0716)" style="overflow:visible;"/>
		
			<use xlink:href="#Star"  width="3.38" height="3.38" x="-1.69" y="-1.69" transform="matrix(1 0 0 -1 1314.3966 350.2546)" style="overflow:visible;"/>
		
			<use xlink:href="#Star"  width="3.38" height="3.38" x="-1.69" y="-1.69" transform="matrix(1 0 0 -1 1322.8901 355.9836)" style="overflow:visible;"/>
		
			<use xlink:href="#Star"  width="3.38" height="3.38" x="-1.69" y="-1.69" transform="matrix(1 0 0 -1 1390.5529 328.4741)" style="overflow:visible;"/>
		
			<use xlink:href="#Star"  width="3.38" height="3.38" x="-1.69" y="-1.69" transform="matrix(1 0 0 -1 1223.6659 380.6966)" style="overflow:visible;"/>
		
			<use xlink:href="#Star"  width="3.38" height="3.38" x="-1.69" y="-1.69" transform="matrix(1 0 0 -1 1204.7789 385.1592)" style="overflow:visible;"/>
		
			<use xlink:href="#Star"  width="3.38" height="3.38" x="-1.69" y="-1.69" transform="matrix(1 0 0 -1 1061.3708 420.8881)" style="overflow:visible;"/>
		
			<use xlink:href="#Star"  width="3.38" height="3.38" x="-1.69" y="-1.69" transform="matrix(1 0 0 -1 692.1439 483.739)" style="overflow:visible;"/>
		
			<use xlink:href="#Star"  width="3.38" height="3.38" x="-1.69" y="-1.69" transform="matrix(1 0 0 -1 669.6068 492.7988)" style="overflow:visible;"/>
		
			<use xlink:href="#Star"  width="3.38" height="3.38" x="-1.69" y="-1.69" transform="matrix(1 0 0 -1 668.0746 487.1625)" style="overflow:visible;"/>
		
			<use xlink:href="#Star"  width="3.38" height="3.38" x="-1.69" y="-1.69" transform="matrix(1 0 0 -1 535.672 683.1158)" style="overflow:visible;"/>
		
			<use xlink:href="#Star"  width="3.38" height="3.38" x="-1.69" y="-1.69" transform="matrix(1 0 0 -1 495.1253 732.215)" style="overflow:visible;"/>
		
			<use xlink:href="#Star"  width="3.38" height="3.38" x="-1.69" y="-1.69" transform="matrix(1 0 0 -1 596.1413 628.7823)" style="overflow:visible;"/>
		
			<use xlink:href="#Star"  width="3.38" height="3.38" x="-1.69" y="-1.69" transform="matrix(1 0 0 -1 256.9849 679.225)" style="overflow:visible;"/>
		
			<use xlink:href="#Star"  width="3.38" height="3.38" x="-1.69" y="-1.69" transform="matrix(1 0 0 -1 424.9717 530.102)" style="overflow:visible;"/>
		
			<use xlink:href="#Star"  width="3.38" height="3.38" x="-1.69" y="-1.69" transform="matrix(1 0 0 -1 372.2273 532.6948)" style="overflow:visible;"/>
		
			<use xlink:href="#Star"  width="3.38" height="3.38" x="-1.69" y="-1.69" transform="matrix(1 0 0 -1 263.1028 526.3853)" style="overflow:visible;"/>
		
			<use xlink:href="#Star"  width="3.38" height="3.38" x="-1.69" y="-1.69" transform="matrix(1 0 0 -1 264.8552 448.1129)" style="overflow:visible;"/>
		
			<use xlink:href="#Star"  width="3.38" height="3.38" x="-1.69" y="-1.69" transform="matrix(1 0 0 -1 80.5637 500.9196)" style="overflow:visible;"/>
		
			<use xlink:href="#Star"  width="3.38" height="3.38" x="-1.69" y="-1.69" transform="matrix(1 0 0 -1 163.3487 453.3724)" style="overflow:visible;"/>
		
			<use xlink:href="#Star"  width="3.38" height="3.38" x="-1.69" y="-1.69" transform="matrix(1 0 0 -1 167.7597 450.9066)" style="overflow:visible;"/>
		
			<use xlink:href="#Star"  width="3.38" height="3.38" x="-1.69" y="-1.69" transform="matrix(1 0 0 -1 223.7673 333.8037)" style="overflow:visible;"/>
		
			<use xlink:href="#Star"  width="3.38" height="3.38" x="-1.69" y="-1.69" transform="matrix(1 0 0 -1 224.4332 151.2775)" style="overflow:visible;"/>
		
			<use xlink:href="#Star"  width="3.38" height="3.38" x="-1.69" y="-1.69" transform="matrix(1 0 0 -1 116.4635 188.9964)" style="overflow:visible;"/>
		
			<use xlink:href="#Star"  width="3.38" height="3.38" x="-1.69" y="-1.69" transform="matrix(1 0 0 -1 170.27 141.0657)" style="overflow:visible;"/>
		
			<use xlink:href="#Star"  width="3.38" height="3.38" x="-1.69" y="-1.69" transform="matrix(1 0 0 -1 158.1632 179.1379)" style="overflow:visible;"/>
		
			<use xlink:href="#Star"  width="3.38" height="3.38" x="-1.69" y="-1.69" transform="matrix(1 0 0 -1 224.4844 126.2809)" style="overflow:visible;"/>
		
			<use xlink:href="#Star"  width="3.38" height="3.38" x="-1.69" y="-1.69" transform="matrix(1 0 0 -1 98.3545 147.7983)" style="overflow:visible;"/>
		
			<use xlink:href="#Star"  width="3.38" height="3.38" x="-1.69" y="-1.69" transform="matrix(1 0 0 -1 107.2319 39.8408)" style="overflow:visible;"/>
		
			<use xlink:href="#Star"  width="3.38" height="3.38" x="-1.69" y="-1.69" transform="matrix(1 0 0 -1 25.4616 83.9586)" style="overflow:visible;"/>
		
			<use xlink:href="#Star"  width="3.38" height="3.38" x="-1.69" y="-1.69" transform="matrix(1 0 0 -1 3.7165 108.3087)" style="overflow:visible;"/>
		
			<use xlink:href="#Star"  width="3.38" height="3.38" x="-1.69" y="-1.69" transform="matrix(1 0 0 -1 162.381 12.9511)" style="overflow:visible;"/>
		
			<use xlink:href="#Star"  width="3.38" height="3.38" x="-1.69" y="-1.69" transform="matrix(1 0 0 -1 367.0422 32.3126)" style="overflow:visible;"/>
		
			<use xlink:href="#Star"  width="3.38" height="3.38" x="-1.69" y="-1.69" transform="matrix(1 0 0 -1 709.1366 -10.8049)" style="overflow:visible;"/>
		
			<use xlink:href="#Star"  width="3.38" height="3.38" x="-1.69" y="-1.69" transform="matrix(1 0 0 -1 544.0696 106.0486)" style="overflow:visible;"/>
		
			<use xlink:href="#Star"  width="3.38" height="3.38" x="-1.69" y="-1.69" transform="matrix(1 0 0 -1 631.2673 -14.4957)" style="overflow:visible;"/>
		
			<use xlink:href="#Star"  width="3.38" height="3.38" x="-1.69" y="-1.69" transform="matrix(1 0 0 -1 586.7401 161.062)" style="overflow:visible;"/>
		
			<use xlink:href="#Star"  width="3.38" height="3.38" x="-1.69" y="-1.69" transform="matrix(1 0 0 -1 587.3114 405.3292)" style="overflow:visible;"/>
		
			<use xlink:href="#Star"  width="3.38" height="3.38" x="-1.69" y="-1.69" transform="matrix(1 0 0 -1 823.7437 239.4102)" style="overflow:visible;"/>
		
			<use xlink:href="#Star"  width="3.38" height="3.38" x="-1.69" y="-1.69" transform="matrix(1 0 0 -1 615.7651 331.519)" style="overflow:visible;"/>
		
			<use xlink:href="#Star"  width="3.38" height="3.38" x="-1.69" y="-1.69" transform="matrix(1 0 0 -1 676.081 290.1312)" style="overflow:visible;"/>
		
			<use xlink:href="#Star"  width="3.38" height="3.38" x="-1.69" y="-1.69" transform="matrix(1 0 0 -1 384.6565 513.4842)" style="overflow:visible;"/>
		
			<use xlink:href="#Star"  width="3.38" height="3.38" x="-1.69" y="-1.69" transform="matrix(1 0 0 -1 582.3713 319.8642)" style="overflow:visible;"/>
		
			<use xlink:href="#Star"  width="3.38" height="3.38" x="-1.69" y="-1.69" transform="matrix(1 0 0 -1 834.8715 124.7275)" style="overflow:visible;"/>
		
			<use xlink:href="#Star"  width="3.38" height="3.38" x="-1.69" y="-1.69" transform="matrix(1 0 0 -1 883.7954 113.0367)" style="overflow:visible;"/>
		
			<use xlink:href="#Star"  width="3.38" height="3.38" x="-1.69" y="-1.69" transform="matrix(1 0 0 -1 1015.5245 77.4028)" style="overflow:visible;"/>
		
			<use xlink:href="#Star"  width="3.38" height="3.38" x="-1.69" y="-1.69" transform="matrix(1 0 0 -1 673.7507 405.4428)" style="overflow:visible;"/>
		
			<use xlink:href="#Star"  width="3.38" height="3.38" x="-1.69" y="-1.69" transform="matrix(1 0 0 -1 736.4755 399.4315)" style="overflow:visible;"/>
		
			<use xlink:href="#Star"  width="3.38" height="3.38" x="-1.69" y="-1.69" transform="matrix(1 0 0 -1 915.6296 353.1214)" style="overflow:visible;"/>
		
			<use xlink:href="#Star"  width="3.38" height="3.38" x="-1.69" y="-1.69" transform="matrix(1 0 0 -1 726.4351 534.6384)" style="overflow:visible;"/>
		
			<use xlink:href="#Star"  width="3.38" height="3.38" x="-1.69" y="-1.69" transform="matrix(1 0 0 -1 1048.2437 332.8172)" style="overflow:visible;"/>
		
			<use xlink:href="#Star"  width="3.38" height="3.38" x="-1.69" y="-1.69" transform="matrix(1 0 0 -1 889.1049 470.2113)" style="overflow:visible;"/>
		
			<use xlink:href="#Star"  width="3.38" height="3.38" x="-1.69" y="-1.69" transform="matrix(1 0 0 -1 824.9918 557.4185)" style="overflow:visible;"/>
		
			<use xlink:href="#Star"  width="3.38" height="3.38" x="-1.69" y="-1.69" transform="matrix(1 0 0 -1 1165.9178 354.7835)" style="overflow:visible;"/>
		
			<use xlink:href="#Star"  width="3.38" height="3.38" x="-1.69" y="-1.69" transform="matrix(1 0 0 -1 1155.3354 357.4352)" style="overflow:visible;"/>
		
			<use xlink:href="#Star"  width="3.38" height="3.38" x="-1.69" y="-1.69" transform="matrix(1 0 0 -1 1300.3878 278.7659)" style="overflow:visible;"/>
		
			<use xlink:href="#Star"  width="3.38" height="3.38" x="-1.69" y="-1.69" transform="matrix(1 0 0 -1 1003.2079 561.4786)" style="overflow:visible;"/>
		
			<use xlink:href="#Star"  width="3.38" height="3.38" x="-1.69" y="-1.69" transform="matrix(1 0 0 -1 797.7825 687.7303)" style="overflow:visible;"/>
		
			<use xlink:href="#Star"  width="3.38" height="3.38" x="-1.69" y="-1.69" transform="matrix(1 0 0 -1 602.884 699.4165)" style="overflow:visible;"/>
		
			<use xlink:href="#Star"  width="3.38" height="3.38" x="-1.69" y="-1.69" transform="matrix(1 0 0 -1 578.501 695.2559)" style="overflow:visible;"/>
		
			<use xlink:href="#Star"  width="3.38" height="3.38" x="-1.69" y="-1.69" transform="matrix(1 0 0 -1 1469.4846 509.2982)" style="overflow:visible;"/>
		
			<use xlink:href="#Star"  width="3.38" height="3.38" x="-1.69" y="-1.69" transform="matrix(1 0 0 -1 1561.7709 585.069)" style="overflow:visible;"/>
		
			<use xlink:href="#Star"  width="3.38" height="3.38" x="-1.69" y="-1.69" transform="matrix(1 0 0 -1 1317.1559 674.2158)" style="overflow:visible;"/>
		
			<use xlink:href="#Star"  width="3.38" height="3.38" x="-1.69" y="-1.69" transform="matrix(1 0 0 -1 1477.3684 585.6052)" style="overflow:visible;"/>
		
			<use xlink:href="#Star"  width="3.38" height="3.38" x="-1.69" y="-1.69" transform="matrix(1 0 0 -1 1293.9357 607.1684)" style="overflow:visible;"/>
		
			<use xlink:href="#Star"  width="3.38" height="3.38" x="-1.69" y="-1.69" transform="matrix(1 0 0 -1 1377.4398 481.8197)" style="overflow:visible;"/>
		
			<use xlink:href="#Star"  width="3.38" height="3.38" x="-1.69" y="-1.69" transform="matrix(1 0 0 -1 1431.1846 448.7791)" style="overflow:visible;"/>
		
			<use xlink:href="#Star"  width="3.38" height="3.38" x="-1.69" y="-1.69" transform="matrix(1 0 0 -1 1197.0486 566.6622)" style="overflow:visible;"/>
		
			<use xlink:href="#Star"  width="3.38" height="3.38" x="-1.69" y="-1.69" transform="matrix(1 0 0 -1 1253.3033 512.2538)" style="overflow:visible;"/>
		
			<use xlink:href="#Star"  width="3.38" height="3.38" x="-1.69" y="-1.69" transform="matrix(1 0 0 -1 1073.9205 593.8849)" style="overflow:visible;"/>
		
			<use xlink:href="#Star"  width="3.38" height="3.38" x="-1.69" y="-1.69" transform="matrix(1 0 0 -1 1071.2953 600.1824)" style="overflow:visible;"/>
	</g>
</g>
<g id="Layer_3" class="st2">
	<linearGradient id="SVGID_2_" gradientUnits="userSpaceOnUse" x1="-78.9385" y1="424.794" x2="345.8355" y2="424.794">
		<stop  offset="0" style="stop-color:#FFFFFF;stop-opacity:0.2"/>
		<stop  offset="1" style="stop-color:#FFFFFF;stop-opacity:0.7"/>
	</linearGradient>
	<path class="st3" d="M345.84,451H-78.94c0,0,81.69-2.51,98.02-7.54c16.34-5.03,27.65-11.31,49.01,0
		c-5.03-22.62,38.96-8.8,38.96-8.8s2.51-51.53,42.73-31.42C190,423.35,245.3,447.23,345.84,451z"/>
	<linearGradient id="SVGID_3_" gradientUnits="userSpaceOnUse" x1="40.6421" y1="167.794" x2="465.4162" y2="167.794">
		<stop  offset="0" style="stop-color:#FFFFFF;stop-opacity:0.2"/>
		<stop  offset="1" style="stop-color:#FFFFFF;stop-opacity:0.7"/>
	</linearGradient>
	<path class="st4" d="M465.42,194H40.64c0,0,81.69-2.51,98.02-7.54c16.34-5.03,27.65-11.31,49.01,0c-5.03-22.62,38.96-8.8,38.96-8.8
		s2.51-51.53,42.73-31.42C309.58,166.35,364.88,190.23,465.42,194z"/>
	<linearGradient id="SVGID_4_" gradientUnits="userSpaceOnUse" x1="918.6422" y1="437.794" x2="1343.4163" y2="437.794">
		<stop  offset="0" style="stop-color:#FFFFFF;stop-opacity:0.2"/>
		<stop  offset="1" style="stop-color:#FFFFFF;stop-opacity:0.7"/>
	</linearGradient>
	<path class="st5" d="M1343.42,464H918.64c0,0,81.69-2.51,98.02-7.54c16.34-5.03,27.65-11.31,49.01,0
		c-5.03-22.62,38.96-8.8,38.96-8.8s2.51-51.53,42.73-31.42C1187.58,436.35,1242.88,460.23,1343.42,464z"/>
	<linearGradient id="SVGID_5_" gradientUnits="userSpaceOnUse" x1="58.6421" y1="880.7939" x2="483.4162" y2="880.7939">
		<stop  offset="0" style="stop-color:#FFFFFF;stop-opacity:0.2"/>
		<stop  offset="1" style="stop-color:#FFFFFF;stop-opacity:0.7"/>
	</linearGradient>
	<path class="st6" d="M483.42,907H58.64c0,0,81.69-2.51,98.02-7.54c16.34-5.03,27.65-11.31,49.01,0c-5.03-22.62,38.96-8.8,38.96-8.8
		s2.51-51.53,42.73-31.42C327.58,879.35,382.88,903.23,483.42,907z"/>
	<linearGradient id="SVGID_6_" gradientUnits="userSpaceOnUse" x1="980.6422" y1="719.7939" x2="1405.4163" y2="719.7939">
		<stop  offset="0" style="stop-color:#FFFFFF;stop-opacity:0.2"/>
		<stop  offset="1" style="stop-color:#FFFFFF;stop-opacity:0.7"/>
	</linearGradient>
	<path class="st7" d="M1405.42,746H980.64c0,0,81.69-2.51,98.02-7.54c16.34-5.03,27.65-11.31,49.01,0
		c-5.03-22.62,38.96-8.8,38.96-8.8s2.51-51.53,42.73-31.42C1249.58,718.35,1304.88,742.23,1405.42,746z"/>
	<linearGradient id="SVGID_7_" gradientUnits="userSpaceOnUse" x1="882.6422" y1="49.794" x2="1307.4163" y2="49.794">
		<stop  offset="0" style="stop-color:#FFFFFF;stop-opacity:0.2"/>
		<stop  offset="1" style="stop-color:#FFFFFF;stop-opacity:0.7"/>
	</linearGradient>
	<path class="st8" d="M1307.42,76H882.64c0,0,81.69-2.51,98.02-7.54c16.34-5.03,27.65-11.31,49.01,0
		c-5.03-22.62,38.96-8.8,38.96-8.8s2.51-51.53,42.73-31.42C1151.58,48.35,1206.88,72.23,1307.42,76z"/>
	<linearGradient id="SVGID_8_" gradientUnits="userSpaceOnUse" x1="212.6421" y1="672.7939" x2="637.4163" y2="672.7939">
		<stop  offset="0" style="stop-color:#FFFFFF;stop-opacity:0.2"/>
		<stop  offset="1" style="stop-color:#FFFFFF;stop-opacity:0.7"/>
	</linearGradient>
	<path class="st9" d="M637.42,699H212.64c0,0,81.69-2.51,98.02-7.54c16.34-5.03,27.65-11.31,49.01,0
		c-5.03-22.62,38.96-8.8,38.96-8.8s2.51-51.53,42.73-31.42C481.58,671.35,536.88,695.23,637.42,699z"/>
	<linearGradient id="SVGID_9_" gradientUnits="userSpaceOnUse" x1="670.6422" y1="207.794" x2="1095.4163" y2="207.794">
		<stop  offset="0" style="stop-color:#FFFFFF;stop-opacity:0.2"/>
		<stop  offset="1" style="stop-color:#FFFFFF;stop-opacity:0.7"/>
	</linearGradient>
	<path class="st10" d="M1095.42,234H670.64c0,0,81.69-2.51,98.02-7.54c16.34-5.03,27.65-11.31,49.01,0
		c-5.03-22.62,38.96-8.8,38.96-8.8s2.51-51.53,42.73-31.42C939.58,206.35,994.88,230.23,1095.42,234z"/>
	<linearGradient id="SVGID_10_" gradientUnits="userSpaceOnUse" x1="525.6422" y1="537.7939" x2="950.4163" y2="537.7939">
		<stop  offset="0" style="stop-color:#FFFFFF;stop-opacity:0.2"/>
		<stop  offset="1" style="stop-color:#FFFFFF;stop-opacity:0.7"/>
	</linearGradient>
	<path class="st11" d="M950.42,564H525.64c0,0,81.69-2.51,98.02-7.54c16.34-5.03,27.65-11.31,49.01,0
		c-5.03-22.62,38.96-8.8,38.96-8.8s2.51-51.53,42.73-31.42C794.58,536.35,849.88,560.23,950.42,564z"/>
</g>
</svg>
