<svg width="24" height="24" viewBox="0 0 24 24" fill="none" xmlns="http://www.w3.org/2000/svg">
<path d="M11.25 3.89998V12.92C11.25 13.25 11.09 13.55 10.82 13.74L3.60999 18.79C3.01999 19.2 2.17999 18.88 2.04999 18.17C1.89999 17.31 2.09999 16.3 2.69999 15.21L5.81999 9.59998L8.75999 4.30998C8.98999 3.89998 9.23999 3.53998 9.49999 3.22998C10.1 2.52998 11.25 2.97998 11.25 3.89998Z" fill="#5ABA8A"/>
<path d="M20.39 18.79L13.18 13.74C12.91 13.55 12.75 13.25 12.75 12.92V3.89998C12.75 2.97998 13.9 2.52998 14.5 3.22998C14.76 3.53998 15.01 3.89998 15.24 4.30998L18.18 9.59998L21.3 15.21C21.9 16.3 22.1 17.31 21.95 18.17C21.82 18.88 20.98 19.2 20.39 18.79Z" fill="#5ABA8A"/>
<path d="M5.26 19.14L11.41 15.04C11.74 14.82 12.28 14.82 12.61 15.04L18.76 19.14C20.39 20.23 20.12 21.12 18.16 21.12H5.85C3.9 21.11 3.63 20.22 5.26 19.14Z" fill="#5ABA8A"/>
</svg>
