<svg width="124" height="41" viewBox="0 0 124 41" fill="none" xmlns="http://www.w3.org/2000/svg">
<path d="M4.168 9.544C3.816 9.832 3.448 10.104 3.064 10.36C2.68 10.616 2.232 10.744 1.72 10.744C1.24 10.744 1 10.312 1 9.448C1 7.688 1.816 6.248 3.448 5.128C5.016 3.976 6.904 3.4 9.112 3.4C11.32 3.4 12.936 4.184 13.96 5.752C14.792 7 15.208 8.696 15.208 10.84C15.208 11.768 15.032 12.968 14.68 14.44C12.856 22.056 11.928 27.336 11.896 30.28C11.928 31.688 12.52 32.648 13.672 33.16C14.12 33.352 14.648 33.448 15.256 33.448C18.104 33.448 20.792 31.768 23.32 28.408C22.04 23.928 21.4 18.84 21.4 13.144C21.4 11.032 21.896 9.32 22.888 8.008C23.912 6.664 25.56 5.992 27.832 5.992C29.528 5.992 30.808 6.472 31.672 7.432C32.568 8.392 33.016 9.656 33.016 11.224C33.016 14.456 32.168 18.44 30.472 23.176C29.896 24.776 29.224 26.36 28.456 27.928C29.832 31.64 31.656 33.496 33.928 33.496C36.488 33.496 38.728 31.768 40.648 28.312C42.056 25.784 43.208 22.344 44.104 17.992C41.768 17.672 39.912 16.68 38.536 15.016C37.192 13.352 36.52 11.576 36.52 9.688C36.52 7.8 37.112 6.232 38.296 4.984C39.48 3.736 41.096 3.112 43.144 3.112C45.192 3.08 46.728 3.8 47.752 5.272C48.776 6.712 49.288 8.68 49.288 11.176V12.136C49.288 12.488 49.272 12.872 49.24 13.288C49.784 13.032 50.248 12.776 50.632 12.52C51.016 12.232 51.4 12.088 51.784 12.088C52.424 12.088 52.744 12.36 52.744 12.904C52.744 13.96 52.392 14.888 51.688 15.688C51.016 16.488 50.104 17.096 48.952 17.512C48.536 21.256 47.976 24.2 47.272 26.344C45.96 30.472 44.232 33.608 42.088 35.752C39.528 38.248 36.376 39.512 32.632 39.544C29.528 39.544 27 37.48 25.048 33.352C21.784 37.48 18.072 39.544 13.912 39.544C11.064 39.544 8.792 38.84 7.096 37.432C5.432 35.992 4.6 33.736 4.6 30.664C4.6 29.928 5 27.992 5.8 24.856C6.632 21.688 7.288 19.096 7.768 17.08C8.248 15.032 8.488 13.416 8.488 12.232C8.488 9.64 7.832 8.344 6.52 8.344C6.072 8.344 5.656 8.472 5.272 8.728C4.92 8.984 4.552 9.256 4.168 9.544ZM27.448 10.024C26.616 10.024 26.2 11.32 26.2 13.912C26.2 16.504 26.424 19.112 26.872 21.736C28.088 18.568 28.696 15.496 28.696 12.52C28.696 11.88 28.584 11.304 28.36 10.792C28.168 10.28 27.864 10.024 27.448 10.024ZM43.672 7.288C43 7.288 42.664 7.816 42.664 8.872C42.664 10.792 43.416 12.184 44.92 13.048C45.048 11.832 45.112 11.016 45.112 10.6C45.112 9.704 45 8.984 44.776 8.44C44.52 7.672 44.152 7.288 43.672 7.288Z" fill="#01565B"/>
<path d="M64.1852 37.288C64.1852 39.176 62.3452 40.12 58.6652 40.12C57.8652 40.12 57.3853 39.72 57.2253 38.92C57.0973 38.088 57.0332 36.968 57.0332 35.56C57.0332 32.808 57.7533 28.728 59.1932 23.32C60.6332 17.912 62.0892 13.576 63.5612 10.312C60.1372 10.376 57.5772 11.048 55.8812 12.328C55.3692 12.712 54.9533 13.064 54.6333 13.384C54.3133 13.672 54.0252 13.816 53.7692 13.816C53.5452 13.816 53.3213 13.64 53.0973 13.288C52.8733 12.904 52.7612 12.456 52.7612 11.944C52.7612 10.184 53.5452 8.824 55.1133 7.864C57.3533 6.52 60.5373 5.624 64.6653 5.176C66.4893 4.984 68.1533 4.888 69.6572 4.888H69.7533C69.9772 4.888 70.2812 5.016 70.6653 5.272C71.0813 5.528 71.2893 5.944 71.2893 6.52C71.2893 7.096 71.1773 7.752 70.9533 8.488C70.7613 9.192 70.4893 9.72 70.1373 10.072C69.9453 11.608 69.5293 13.448 68.8893 15.592C68.2493 17.736 67.5773 20.024 66.8733 22.456C65.0813 28.728 64.1852 33.672 64.1852 37.288ZM87.8973 28.072C88.4413 28.072 88.7133 28.808 88.7133 30.28C88.7133 31.08 88.3773 32.056 87.7053 33.208C87.0332 34.328 86.1533 35.368 85.0653 36.328C84.0093 37.256 82.8253 38.024 81.5133 38.632C80.2012 39.24 78.9532 39.544 77.7692 39.544C76.5853 39.544 75.6572 39.32 74.9853 38.872C74.3133 38.424 73.7853 37.816 73.4013 37.048C72.8573 35.96 72.4092 33.896 72.0573 30.856C71.7053 27.784 71.3532 25.64 71.0013 24.424C70.1693 24.264 69.4333 23.944 68.7933 23.464C68.1852 22.952 67.8812 22.344 67.8812 21.64C67.8812 20.904 68.2012 20.376 68.8412 20.056C69.5132 19.736 70.2653 19.576 71.0973 19.576C71.9293 19.576 72.6653 19.768 73.3053 20.152C75.0332 18.296 76.6012 15.864 78.0092 12.856C78.6492 11.48 79.2573 10.072 79.8333 8.632C80.4413 7.16 81.0653 5.656 81.7053 4.12C81.8652 3.736 82.2012 3.512 82.7132 3.448C83.2572 3.352 83.9613 3.304 84.8252 3.304C85.6892 3.304 86.2973 3.592 86.6493 4.168C87.0013 4.712 87.1773 5.624 87.1773 6.904C87.1773 8.152 86.8412 9.592 86.1693 11.224C85.4973 12.856 84.6332 14.44 83.5772 15.976C81.3692 19.208 78.8252 21.64 75.9453 23.272C76.4573 24.328 76.8733 25.496 77.1933 26.776C77.5133 28.024 77.8173 29.192 78.1053 30.28C78.3933 31.336 78.7133 32.232 79.0653 32.968C79.4493 33.672 79.9133 34.024 80.4573 34.024C81.0013 34.024 81.6413 33.72 82.3773 33.112C83.1452 32.472 83.8973 31.784 84.6333 31.048C85.3693 30.312 86.0253 29.64 86.6012 29.032C87.2093 28.392 87.6413 28.072 87.8973 28.072Z" fill="#01565B"/>
<path d="M92.0594 39.544C88.8594 39.544 87.2594 36.552 87.2594 30.568C87.2594 27.304 87.6594 24.344 88.4594 21.688C89.7074 17.592 91.1154 15.544 92.6834 15.544C93.6114 15.544 94.3474 16.168 94.8914 17.416C95.3394 18.376 95.5474 19.32 95.5154 20.248C95.5154 21.528 95.1314 23.784 94.3634 27.016C93.6274 29.832 93.2594 31.576 93.2594 32.248C93.2594 32.92 93.4194 33.384 93.7394 33.64C94.0914 33.896 94.4914 34.024 94.9394 34.024C95.4194 34.024 96.0114 33.72 96.7154 33.112C97.4194 32.504 98.1234 31.848 98.8274 31.144C99.5314 30.408 100.171 29.736 100.747 29.128C101.355 28.52 101.771 28.216 101.995 28.216C102.443 28.216 102.667 28.76 102.667 29.848C102.667 32.088 101.531 34.28 99.2594 36.424C97.0194 38.536 94.6194 39.576 92.0594 39.544ZM94.0274 11.656C93.1634 10.376 92.7314 9 92.7314 7.528C92.7314 6.056 92.9554 4.84 93.4034 3.88C93.8834 2.888 94.3314 2.168 94.7474 1.72C95.1634 1.24 95.6434 1 96.1874 1C97.0834 1 97.8994 1.672 98.6354 3.016C99.3714 4.328 99.7394 5.432 99.7394 6.328C99.7394 7.992 99.1474 9.304 97.9634 10.264C96.8114 11.192 95.4994 11.656 94.0274 11.656Z" fill="#01565B"/>
<path d="M111.452 34.168C113.948 34.168 116.364 33.176 118.7 31.192C119.564 30.456 120.268 29.784 120.812 29.176C121.356 28.536 121.772 28.216 122.06 28.216C122.508 28.216 122.732 28.664 122.732 29.56C122.732 30.456 122.492 31.464 122.012 32.584C121.532 33.672 120.732 34.744 119.612 35.8C116.86 38.392 113.084 39.688 108.284 39.688C104.476 39.688 101.884 38.312 100.508 35.56C100.028 34.6 99.7881 33.224 99.7881 31.432C99.7881 29.64 100.14 27.784 100.844 25.864C101.548 23.912 102.476 22.232 103.628 20.824C104.812 19.416 106.172 18.328 107.708 17.56C109.244 16.76 110.876 16.36 112.604 16.36C114.364 16.36 115.708 16.792 116.636 17.656C117.596 18.52 118.076 19.64 118.076 21.016C118.076 22.392 117.724 23.528 117.02 24.424C116.348 25.288 115.468 26.024 114.38 26.632C113.292 27.208 112.076 27.736 110.732 28.216C109.42 28.664 108.124 29.176 106.844 29.752V30.952C106.876 32.104 107.356 32.92 108.284 33.4C109.212 33.88 110.268 34.136 111.452 34.168ZM110.636 20.632C108.972 20.632 107.82 22.568 107.18 26.44C107.852 25.992 108.476 25.592 109.052 25.24C109.66 24.888 110.188 24.552 110.636 24.232C111.596 23.528 112.092 22.728 112.124 21.832C112.124 21.032 111.628 20.632 110.636 20.632Z" fill="#01565B"/>
<path d="M4.168 9.544C3.816 9.832 3.448 10.104 3.064 10.36C2.68 10.616 2.232 10.744 1.72 10.744C1.24 10.744 1 10.312 1 9.448C1 7.688 1.816 6.248 3.448 5.128C5.016 3.976 6.904 3.4 9.112 3.4C11.32 3.4 12.936 4.184 13.96 5.752C14.792 7 15.208 8.696 15.208 10.84C15.208 11.768 15.032 12.968 14.68 14.44C12.856 22.056 11.928 27.336 11.896 30.28C11.928 31.688 12.52 32.648 13.672 33.16C14.12 33.352 14.648 33.448 15.256 33.448C18.104 33.448 20.792 31.768 23.32 28.408C22.04 23.928 21.4 18.84 21.4 13.144C21.4 11.032 21.896 9.32 22.888 8.008C23.912 6.664 25.56 5.992 27.832 5.992C29.528 5.992 30.808 6.472 31.672 7.432C32.568 8.392 33.016 9.656 33.016 11.224C33.016 14.456 32.168 18.44 30.472 23.176C29.896 24.776 29.224 26.36 28.456 27.928C29.832 31.64 31.656 33.496 33.928 33.496C36.488 33.496 38.728 31.768 40.648 28.312C42.056 25.784 43.208 22.344 44.104 17.992C41.768 17.672 39.912 16.68 38.536 15.016C37.192 13.352 36.52 11.576 36.52 9.688C36.52 7.8 37.112 6.232 38.296 4.984C39.48 3.736 41.096 3.112 43.144 3.112C45.192 3.08 46.728 3.8 47.752 5.272C48.776 6.712 49.288 8.68 49.288 11.176V12.136C49.288 12.488 49.272 12.872 49.24 13.288C49.784 13.032 50.248 12.776 50.632 12.52C51.016 12.232 51.4 12.088 51.784 12.088C52.424 12.088 52.744 12.36 52.744 12.904C52.744 13.96 52.392 14.888 51.688 15.688C51.016 16.488 50.104 17.096 48.952 17.512C48.536 21.256 47.976 24.2 47.272 26.344C45.96 30.472 44.232 33.608 42.088 35.752C39.528 38.248 36.376 39.512 32.632 39.544C29.528 39.544 27 37.48 25.048 33.352C21.784 37.48 18.072 39.544 13.912 39.544C11.064 39.544 8.792 38.84 7.096 37.432C5.432 35.992 4.6 33.736 4.6 30.664C4.6 29.928 5 27.992 5.8 24.856C6.632 21.688 7.288 19.096 7.768 17.08C8.248 15.032 8.488 13.416 8.488 12.232C8.488 9.64 7.832 8.344 6.52 8.344C6.072 8.344 5.656 8.472 5.272 8.728C4.92 8.984 4.552 9.256 4.168 9.544ZM27.448 10.024C26.616 10.024 26.2 11.32 26.2 13.912C26.2 16.504 26.424 19.112 26.872 21.736C28.088 18.568 28.696 15.496 28.696 12.52C28.696 11.88 28.584 11.304 28.36 10.792C28.168 10.28 27.864 10.024 27.448 10.024ZM43.672 7.288C43 7.288 42.664 7.816 42.664 8.872C42.664 10.792 43.416 12.184 44.92 13.048C45.048 11.832 45.112 11.016 45.112 10.6C45.112 9.704 45 8.984 44.776 8.44C44.52 7.672 44.152 7.288 43.672 7.288Z" stroke="#01565B"/>
<path d="M64.1852 37.288C64.1852 39.176 62.3452 40.12 58.6652 40.12C57.8652 40.12 57.3853 39.72 57.2253 38.92C57.0973 38.088 57.0332 36.968 57.0332 35.56C57.0332 32.808 57.7533 28.728 59.1932 23.32C60.6332 17.912 62.0892 13.576 63.5612 10.312C60.1372 10.376 57.5772 11.048 55.8812 12.328C55.3692 12.712 54.9533 13.064 54.6333 13.384C54.3133 13.672 54.0252 13.816 53.7692 13.816C53.5452 13.816 53.3213 13.64 53.0973 13.288C52.8733 12.904 52.7612 12.456 52.7612 11.944C52.7612 10.184 53.5452 8.824 55.1133 7.864C57.3533 6.52 60.5373 5.624 64.6653 5.176C66.4893 4.984 68.1533 4.888 69.6572 4.888H69.7533C69.9772 4.888 70.2812 5.016 70.6653 5.272C71.0813 5.528 71.2893 5.944 71.2893 6.52C71.2893 7.096 71.1773 7.752 70.9533 8.488C70.7613 9.192 70.4893 9.72 70.1373 10.072C69.9453 11.608 69.5293 13.448 68.8893 15.592C68.2493 17.736 67.5773 20.024 66.8733 22.456C65.0813 28.728 64.1852 33.672 64.1852 37.288ZM87.8973 28.072C88.4413 28.072 88.7133 28.808 88.7133 30.28C88.7133 31.08 88.3773 32.056 87.7053 33.208C87.0332 34.328 86.1533 35.368 85.0653 36.328C84.0093 37.256 82.8253 38.024 81.5133 38.632C80.2012 39.24 78.9532 39.544 77.7692 39.544C76.5853 39.544 75.6572 39.32 74.9853 38.872C74.3133 38.424 73.7853 37.816 73.4013 37.048C72.8573 35.96 72.4092 33.896 72.0573 30.856C71.7053 27.784 71.3532 25.64 71.0013 24.424C70.1693 24.264 69.4333 23.944 68.7933 23.464C68.1852 22.952 67.8812 22.344 67.8812 21.64C67.8812 20.904 68.2012 20.376 68.8412 20.056C69.5132 19.736 70.2653 19.576 71.0973 19.576C71.9293 19.576 72.6653 19.768 73.3053 20.152C75.0332 18.296 76.6012 15.864 78.0092 12.856C78.6492 11.48 79.2573 10.072 79.8333 8.632C80.4413 7.16 81.0653 5.656 81.7053 4.12C81.8652 3.736 82.2012 3.512 82.7132 3.448C83.2572 3.352 83.9613 3.304 84.8252 3.304C85.6892 3.304 86.2973 3.592 86.6493 4.168C87.0013 4.712 87.1773 5.624 87.1773 6.904C87.1773 8.152 86.8412 9.592 86.1693 11.224C85.4973 12.856 84.6332 14.44 83.5772 15.976C81.3692 19.208 78.8252 21.64 75.9453 23.272C76.4573 24.328 76.8733 25.496 77.1933 26.776C77.5133 28.024 77.8173 29.192 78.1053 30.28C78.3933 31.336 78.7133 32.232 79.0653 32.968C79.4493 33.672 79.9133 34.024 80.4573 34.024C81.0013 34.024 81.6413 33.72 82.3773 33.112C83.1452 32.472 83.8973 31.784 84.6333 31.048C85.3693 30.312 86.0253 29.64 86.6012 29.032C87.2093 28.392 87.6413 28.072 87.8973 28.072Z" stroke="#01565B"/>
<path d="M92.0594 39.544C88.8594 39.544 87.2594 36.552 87.2594 30.568C87.2594 27.304 87.6594 24.344 88.4594 21.688C89.7074 17.592 91.1154 15.544 92.6834 15.544C93.6114 15.544 94.3474 16.168 94.8914 17.416C95.3394 18.376 95.5474 19.32 95.5154 20.248C95.5154 21.528 95.1314 23.784 94.3634 27.016C93.6274 29.832 93.2594 31.576 93.2594 32.248C93.2594 32.92 93.4194 33.384 93.7394 33.64C94.0914 33.896 94.4914 34.024 94.9394 34.024C95.4194 34.024 96.0114 33.72 96.7154 33.112C97.4194 32.504 98.1234 31.848 98.8274 31.144C99.5314 30.408 100.171 29.736 100.747 29.128C101.355 28.52 101.771 28.216 101.995 28.216C102.443 28.216 102.667 28.76 102.667 29.848C102.667 32.088 101.531 34.28 99.2594 36.424C97.0194 38.536 94.6194 39.576 92.0594 39.544ZM94.0274 11.656C93.1634 10.376 92.7314 9 92.7314 7.528C92.7314 6.056 92.9554 4.84 93.4034 3.88C93.8834 2.888 94.3314 2.168 94.7474 1.72C95.1634 1.24 95.6434 1 96.1874 1C97.0834 1 97.8994 1.672 98.6354 3.016C99.3714 4.328 99.7394 5.432 99.7394 6.328C99.7394 7.992 99.1474 9.304 97.9634 10.264C96.8114 11.192 95.4994 11.656 94.0274 11.656Z" stroke="#01565B"/>
<path d="M111.452 34.168C113.948 34.168 116.364 33.176 118.7 31.192C119.564 30.456 120.268 29.784 120.812 29.176C121.356 28.536 121.772 28.216 122.06 28.216C122.508 28.216 122.732 28.664 122.732 29.56C122.732 30.456 122.492 31.464 122.012 32.584C121.532 33.672 120.732 34.744 119.612 35.8C116.86 38.392 113.084 39.688 108.284 39.688C104.476 39.688 101.884 38.312 100.508 35.56C100.028 34.6 99.7881 33.224 99.7881 31.432C99.7881 29.64 100.14 27.784 100.844 25.864C101.548 23.912 102.476 22.232 103.628 20.824C104.812 19.416 106.172 18.328 107.708 17.56C109.244 16.76 110.876 16.36 112.604 16.36C114.364 16.36 115.708 16.792 116.636 17.656C117.596 18.52 118.076 19.64 118.076 21.016C118.076 22.392 117.724 23.528 117.02 24.424C116.348 25.288 115.468 26.024 114.38 26.632C113.292 27.208 112.076 27.736 110.732 28.216C109.42 28.664 108.124 29.176 106.844 29.752V30.952C106.876 32.104 107.356 32.92 108.284 33.4C109.212 33.88 110.268 34.136 111.452 34.168ZM110.636 20.632C108.972 20.632 107.82 22.568 107.18 26.44C107.852 25.992 108.476 25.592 109.052 25.24C109.66 24.888 110.188 24.552 110.636 24.232C111.596 23.528 112.092 22.728 112.124 21.832C112.124 21.032 111.628 20.632 110.636 20.632Z" stroke="#01565B"/>
</svg>
